# xmcd CD database file
#
# Track frame offsets:
#	150
#	17300
#	37400
#	55315
#	73912
#	94987
#	114425
#	134435
#	154937
#	175445
#	199597
#	222180
#	242250
#
# Disc length: 3522 seconds
#
# Revision: 3
# Processed by: cddbd v1.5.2PL0 Copyright (c) Steve Scherf et al.
# Submitted via: CDex 1.70beta2
#
DISCID=ba0dc00d
DTITLE=ZARD - ZARD BLEND -SUN and STONE-
DYEAR=1997
DGENRE=JPop
TTITLE0=君に逢いたくなったら
TTITLE1=揺れる想い
TTITLE2=君がいない
TTITLE3=心を開いて
TTITLE4=Good-bye My Loneliness
TTITLE5=IN MY ARMS TONIGHT
TTITLE6=あの微笑みを忘れないで
TTITLE7=Oh my love
TTITLE8=来年の夏も
TTITLE9=ハイヒール脱ぎ捨てて
TTITLE10=Don't you see!
TTITLE11=眠れない夜を抱いて
TTITLE12=こんなに愛しても -Hold Me-
EXTD=YEAR: 1997
EXTT0=
EXTT1=
EXTT2=
EXTT3=
EXTT4=
EXTT5=
EXTT6=
EXTT7=
EXTT8=
EXTT9=
EXTT10=
EXTT11=
EXTT12=
PLAYORDER=
